<svg xmlns="http://www.w3.org/2000/svg" width="24" height="24" fill="none" viewBox="0 0 24 24"><path fill="#fff" fill-rule="evenodd" d="M12 0C5.37308 0 0 5.50947 0 12.3046C0 17.7407 3.43766 22.3537 8.20666 23.9796C8.80676 24.0937 9.02732 23.7127 9.02732 23.3867C9.02732 23.0933 9.0154 22.1234 9.01143 21.0965C5.67114 21.8402 4.96771 19.6458 4.96771 19.6458C4.42126 18.2236 3.63636 17.8446 3.63636 17.8446C2.54744 17.0806 3.71783 17.0969 3.71783 17.0969C4.92201 17.1845 5.55787 18.3642 5.55787 18.3642C6.62891 20.2448 8.36562 19.7008 9.04918 19.3871C9.15648 18.5924 9.46846 18.0484 9.81023 17.7407C7.14555 17.429 4.34377 16.3736 4.34377 11.6608C4.34377 10.318 4.81272 9.2198 5.57973 8.35793C5.45455 8.04822 5.04521 6.79718 5.69498 5.10196C5.69498 5.10196 6.70243 4.77188 8.99553 6.36319C9.9533 6.09016 10.9786 5.95365 12 5.94957C13.0194 5.95365 14.0467 6.09016 15.0065 6.36319C17.2976 4.77188 18.303 5.10196 18.303 5.10196C18.9568 6.79718 18.5455 8.04822 18.4203 8.35793C19.1893 9.2198 19.6542 10.318 19.6542 11.6608C19.6542 16.3858 16.8465 17.427 14.1759 17.7326C14.6071 18.1136 14.9906 18.8634 14.9906 20.0105C14.9906 21.6569 14.9767 22.9812 14.9767 23.3867C14.9767 23.7148 15.1932 24.0978 15.8013 23.9776C20.5663 22.3496 24 17.7387 24 12.3046C24 5.50947 18.6269 0 12 0Z" clip-rule="evenodd"/></svg>