<svg xmlns="http://www.w3.org/2000/svg" width="119" height="16" fill="none" viewBox="0 0 119 16"><path fill="#fff" d="M32.5 11.516C32.01 11.516 31.604 11.11 31.604 10.62V5.58C31.604 5.09 32.01 4.698 32.5 4.698H35.986C36.476 4.698 36.868 5.09 36.868 5.58V6.056H38.632V5.384C38.632 4.194 37.596 3.2 36.434 3.2H32.038C30.848 3.2 29.854 4.222 29.854 5.384V10.83C29.854 12.02 30.89 13 32.038 13H36.434C37.652 13 38.632 11.978 38.632 10.83V7.484H34.264V8.982H36.868V10.62C36.868 11.11 36.462 11.516 35.972 11.516H32.5ZM45.576 5.412H42.216C41.124 5.412 40.242 6.336 40.242 7.4V11.012C40.242 12.118 41.166 13 42.216 13H45.576C46.696 13 47.564 12.09 47.564 11.012V7.4C47.564 6.294 46.654 5.412 45.576 5.412ZM45.94 10.788C45.94 11.25 45.59 11.6 45.142 11.6H42.664C42.216 11.6 41.852 11.25 41.852 10.788V7.624C41.852 7.176 42.216 6.826 42.664 6.826H45.142C45.59 6.826 45.94 7.176 45.94 7.624V10.788ZM54.846 5.412L52.48 11.306H52.438L50.086 5.412H48.336L51.64 13H53.306L56.596 5.412H54.846ZM62.0905 6.798C62.5385 6.798 62.8605 7.12 62.8605 7.568V8.478H58.9825V7.61C58.9825 7.148 59.3325 6.798 59.7805 6.798H62.0905ZM62.4545 13C63.5325 13 64.4425 12.216 64.4425 11.11V10.606H62.8605V10.802C62.8605 11.264 62.4965 11.614 62.0485 11.614H59.7805C59.3325 11.614 58.9825 11.264 58.9825 10.802V9.724H64.4425V7.358C64.4425 6.28 63.5885 5.412 62.4965 5.412H59.3605C58.2685 5.412 57.3865 6.294 57.3865 7.4V11.012C57.3865 12.104 58.2685 13 59.3605 13H62.4545ZM67.7095 7.302C67.7095 7.022 67.9335 6.826 68.1995 6.826H71.2795V5.412H68.8855L67.7095 6.364V5.412H66.0995V13H67.7095V7.302ZM73.9848 7.302C73.9848 7.022 74.2088 6.826 74.4748 6.826H77.1768C77.6248 6.826 77.9748 7.176 77.9748 7.624V13H79.5988V7.4C79.5988 6.294 78.6888 5.412 77.6108 5.412H75.1608L73.9848 6.406V5.412H72.3748V13H73.9848V7.302ZM83.6796 11.6C83.2316 11.6 82.8676 11.25 82.8676 10.788V7.624C82.8676 7.176 83.2316 6.826 83.6796 6.826H86.7036V11.11C86.7036 11.39 86.4796 11.6 86.2136 11.6H83.6796ZM85.4856 13L86.7036 11.964V13H88.3136V5.412H83.2456C82.1816 5.412 81.2576 6.294 81.2576 7.4V11.012C81.2576 12.076 82.1396 13 83.2456 13H85.4856ZM91.7446 7.302C91.7446 7.022 91.9686 6.826 92.2346 6.826H94.9366C95.3846 6.826 95.7346 7.176 95.7346 7.624V13H97.3586V7.4C97.3586 6.294 96.4486 5.412 95.3706 5.412H92.9206L91.7446 6.406V5.412H90.1346V13H91.7446V7.302ZM104.015 13C105.093 13 106.003 12.118 106.003 11.012V10.312H104.393V10.788C104.393 11.25 104.029 11.6 103.581 11.6H101.439C100.991 11.6 100.627 11.25 100.627 10.788V7.624C100.627 7.176 100.991 6.826 101.439 6.826H103.581C104.029 6.826 104.393 7.176 104.393 7.624V8.114H106.003V7.4C106.003 6.294 105.093 5.412 104.015 5.412H100.991C99.8854 5.412 99.0174 6.322 99.0174 7.4V11.012C99.0174 12.118 99.9274 13 100.991 13H104.015ZM112.198 6.798C112.646 6.798 112.968 7.12 112.968 7.568V8.478H109.09V7.61C109.09 7.148 109.44 6.798 109.888 6.798H112.198ZM112.562 13C113.64 13 114.55 12.216 114.55 11.11V10.606H112.968V10.802C112.968 11.264 112.604 11.614 112.156 11.614H109.888C109.44 11.614 109.09 11.264 109.09 10.802V9.724H114.55V7.358C114.55 6.28 113.696 5.412 112.604 5.412H109.468C108.376 5.412 107.494 6.294 107.494 7.4V11.012C107.494 12.104 108.376 13 109.468 13H112.562Z"/><g clip-path="url(#clip0_790_18751)"><path fill="#00D1FF" d="M5.17741 4.49495C5.02759 4.32499 4.84313 4.23981 4.62363 4.23981H0.13452C0.0946474 4.23981 0.0620242 4.22729 0.0374562 4.20226C0.0124854 4.17763 0 4.14978 0 4.1199V1.1199C0 1.09003 0.0124854 1.06258 0.0374562 1.03755C0.0620242 1.01252 0.0946474 1 0.13452 1H4.87817C6.07515 1 7.10782 1.48526 7.97575 2.45499L9.12804 3.84982L6.88348 6.5648L5.17741 4.49495ZM13.4677 2.44005C14.3357 1.48002 15.3732 1 16.5802 1H21.309C21.3488 1 21.3786 1.01009 21.3988 1.02987C21.4185 1.05006 21.4286 1.07994 21.4286 1.1199V4.1199C21.4286 4.14978 21.4185 4.17763 21.3988 4.20226C21.3786 4.22729 21.3488 4.23981 21.309 4.23981H16.8198C16.6003 4.23981 16.4159 4.32499 16.2661 4.49495L12.959 8.48486L16.281 12.5046C16.4308 12.6649 16.61 12.7449 16.8198 12.7449H21.309C21.3488 12.7449 21.3786 12.7574 21.3988 12.7824C21.4185 12.8074 21.4286 12.8401 21.4286 12.8797V15.8797C21.4286 15.9096 21.4185 15.9374 21.3988 15.962C21.3786 15.9871 21.3488 15.9996 21.309 15.9996H16.5802C15.3732 15.9996 14.3405 15.5147 13.4826 14.5446L10.7294 11.2148L7.97575 14.5446C7.10782 15.5147 6.07032 15.9996 4.86326 15.9996H0.13452C0.0946474 15.9996 0.0644408 15.9871 0.0447058 15.962C0.024568 15.937 0.0149019 15.9047 0.0149019 15.8644V12.8644C0.0149019 12.8345 0.024568 12.807 0.0447058 12.782C0.0644408 12.757 0.0946474 12.7444 0.13452 12.7444H4.62363C4.83306 12.7444 5.01752 12.6597 5.17741 12.4893L8.42442 8.55955L13.4677 2.44005Z"/></g><defs><clipPath id="clip0_790_18751"><rect width="21.429" height="15" fill="#fff" transform="translate(0 1)"/></clipPath></defs></svg>