<svg width="58" height="58" viewBox="0 0 58 58" fill="none" xmlns="http://www.w3.org/2000/svg">
<g filter="url(#filter0_d_756_160459)">
<path fill-rule="evenodd" clip-rule="evenodd" d="M29 32.2741C27.1925 32.2741 25.7273 30.8088 25.7273 29.0012C25.7273 27.1937 27.1925 25.7284 29 25.7284C30.8075 25.7284 32.2727 27.1937 32.2727 29.0012C32.2727 30.8088 30.8075 32.2741 29 32.2741ZM30.6364 29.0012C30.6364 29.905 29.9038 30.6377 29 30.6377C28.0963 30.6377 27.3636 29.905 27.3636 29.0012C27.3636 28.0975 28.0963 27.3648 29 27.3648C29.9038 27.3648 30.6364 28.0975 30.6364 29.0012Z" fill="white"/>
<path fill-rule="evenodd" clip-rule="evenodd" d="M34.0241 36.1626C34.2847 36.2352 34.5643 36.1618 34.7556 35.9704L35.9514 34.7746C36.1422 34.5838 36.2158 34.3053 36.1442 34.0452L35.6899 32.3946C35.6453 32.2328 35.6563 32.0607 35.7212 31.9059L35.8002 31.7172C35.8645 31.5635 35.9782 31.4356 36.1234 31.3537L37.6186 30.5099C37.8542 30.3769 38 30.1273 38 29.8567V28.1657C38 27.8959 37.8551 27.6469 37.6205 27.5136L36.1298 26.6665C35.9844 26.5839 35.8708 26.455 35.807 26.3004L35.7301 26.114C35.6664 25.9593 35.6561 25.7879 35.701 25.6267L36.161 23.9753C36.2337 23.7144 36.1601 23.4346 35.9685 23.2433L34.7719 22.0483C34.5811 21.8578 34.3028 21.7844 34.0429 21.8559L32.392 22.3102C32.2301 22.3547 32.0579 22.3437 31.903 22.2787L31.7157 22.2002C31.5621 22.1358 31.4344 22.0221 31.3525 21.8771L30.5086 20.3814C30.3756 20.1458 30.126 20 29.8554 20H28.1645C27.8947 20 27.6457 20.1449 27.5125 20.3795L26.6654 21.8703C26.5827 22.0157 26.4539 22.1293 26.2993 22.1931L26.1132 22.2698C25.9585 22.3336 25.7869 22.3439 25.6257 22.2989L23.9746 21.8383C23.7138 21.7656 23.4341 21.839 23.2427 22.0304L22.0486 23.2246C21.8579 23.4153 21.7842 23.6938 21.8558 23.9539L22.3101 25.605C22.3546 25.7669 22.3436 25.9391 22.2786 26.094L22.2001 26.2813C22.1357 26.4349 22.022 26.5626 21.877 26.6445L20.3814 27.4884C20.1458 27.6214 20 27.871 20 28.1416V29.8325C20 30.102 20.1445 30.3507 20.3786 30.4842L21.8689 31.3337C22.014 31.4164 22.1272 31.5451 22.1909 31.6994L22.2682 31.8869C22.332 32.0415 22.3422 32.213 22.2973 32.3741L21.8373 34.0255C21.7647 34.2862 21.8381 34.5658 22.0295 34.7572L23.2244 35.9521C23.4152 36.1429 23.6936 36.2165 23.9537 36.1449L25.6047 35.6906C25.7666 35.6461 25.9388 35.6572 26.0937 35.7221L26.2811 35.8007C26.4347 35.8651 26.5624 35.9787 26.6443 36.1237L27.4881 37.6187C27.6211 37.8543 27.8707 38 28.1413 38H29.8321C30.1016 38 30.3504 37.8554 30.4838 37.6212L31.3325 36.1311C31.4152 35.986 31.5439 35.8726 31.6983 35.8089L31.8855 35.7317C32.0401 35.6679 32.2116 35.6577 32.3727 35.7025L34.0241 36.1626ZM34.8307 30.205C34.6855 30.2869 34.5718 30.4148 34.5074 30.5685L33.9935 31.796C33.9287 31.9509 33.9177 32.1229 33.9622 32.2848L34.3425 33.6665C34.3964 33.8622 34.341 34.0717 34.1975 34.2151C34.0536 34.3591 33.8433 34.4143 33.6472 34.3597L32.2694 33.9758C32.1083 33.931 31.9368 33.9412 31.7822 34.005L30.5547 34.5113C30.4003 34.5749 30.2716 34.6883 30.1889 34.8334L29.4795 36.0791C29.379 36.2555 29.1916 36.3644 28.9886 36.3644C28.7848 36.3644 28.5968 36.2546 28.4966 36.0772L27.7938 34.8321C27.712 34.6871 27.5842 34.5734 27.4307 34.5091L26.2049 33.9951C26.05 33.9301 25.8778 33.9191 25.7159 33.9636L24.3328 34.3442C24.1375 34.3979 23.9284 34.3427 23.7852 34.1994C23.6415 34.0557 23.5863 33.8458 23.6409 33.65L24.0248 32.2716C24.0697 32.1105 24.0595 31.939 23.9957 31.7844L23.4894 30.5568C23.4258 30.4025 23.3125 30.2738 23.1675 30.1911L21.9216 29.4809C21.7453 29.3804 21.6364 29.193 21.6364 28.99C21.6364 28.7862 21.7462 28.5981 21.9237 28.4979L23.1694 27.795C23.3144 27.7132 23.4281 27.5854 23.4924 27.4318L24.0064 26.206C24.0713 26.0511 24.0824 25.8789 24.0379 25.717L23.6571 24.3331C23.6035 24.1382 23.6586 23.9296 23.8015 23.7867C23.945 23.6432 24.1545 23.5882 24.3499 23.6427L25.7287 24.0274C25.8899 24.0724 26.0615 24.0621 26.2162 23.9983L27.4438 23.492C27.5984 23.4283 27.7273 23.3146 27.8099 23.1692L28.5182 21.9226C28.6185 21.7462 28.8057 21.6373 29.0085 21.6373C29.212 21.6373 29.3997 21.7469 29.4997 21.9241L30.2029 23.1703C30.2847 23.3153 30.4125 23.429 30.5661 23.4934L31.7919 24.0074C31.9467 24.0723 32.1189 24.0834 32.2808 24.0389L33.664 23.6582C33.8595 23.6044 34.0689 23.6597 34.2124 23.803C34.3565 23.9469 34.4119 24.1574 34.3572 24.3537L33.9736 25.7309C33.9287 25.892 33.9389 26.0635 34.0027 26.2181L34.509 27.4457C34.5728 27.6004 34.6864 27.7292 34.8318 27.8119L36.0783 28.5202C36.2547 28.6205 36.3637 28.8077 36.3637 29.0106C36.3637 29.2141 36.2541 29.4018 36.0769 29.5018L34.8307 30.205Z" fill="white"/>
<path d="M13.184 46.564L12.957 47.0095L13.184 46.564ZM11.436 44.816L10.9905 45.043L11.436 44.816ZM46.564 44.816L47.0095 45.043L46.564 44.816ZM44.816 46.564L45.043 47.0095L44.816 46.564ZM44.816 11.436L45.043 10.9905L44.816 11.436ZM46.564 13.184L47.0095 12.957L46.564 13.184ZM13.184 11.436L12.957 10.9905L13.184 11.436ZM11.436 13.184L10.9905 12.957L11.436 13.184ZM17.4 11.5H40.6V10.5H17.4V11.5ZM46.5 17.4V40.6H47.5V17.4H46.5ZM40.6 46.5H17.4V47.5H40.6V46.5ZM11.5 40.6V17.4H10.5V40.6H11.5ZM17.4 46.5C16.2716 46.5 15.4554 46.4996 14.8135 46.4472C14.1774 46.3952 13.7566 46.2946 13.411 46.1185L12.957 47.0095C13.4671 47.2694 14.0342 47.3868 14.7321 47.4438C15.4242 47.5004 16.2881 47.5 17.4 47.5V46.5ZM10.5 40.6C10.5 41.7119 10.4996 42.5758 10.5562 43.2679C10.6132 43.9658 10.7306 44.5329 10.9905 45.043L11.8815 44.589C11.7054 44.2434 11.6048 43.8226 11.5528 43.1865C11.5004 42.5446 11.5 41.7284 11.5 40.6H10.5ZM13.411 46.1185C12.7525 45.783 12.217 45.2475 11.8815 44.589L10.9905 45.043C11.4219 45.8897 12.1103 46.5781 12.957 47.0095L13.411 46.1185ZM46.5 40.6C46.5 41.7284 46.4996 42.5446 46.4472 43.1865C46.3952 43.8226 46.2946 44.2434 46.1185 44.589L47.0095 45.043C47.2694 44.5329 47.3868 43.9658 47.4438 43.2679C47.5004 42.5758 47.5 41.7119 47.5 40.6H46.5ZM40.6 47.5C41.7119 47.5 42.5758 47.5004 43.2679 47.4438C43.9658 47.3868 44.5329 47.2694 45.043 47.0095L44.589 46.1185C44.2434 46.2946 43.8226 46.3952 43.1865 46.4472C42.5446 46.4996 41.7284 46.5 40.6 46.5V47.5ZM46.1185 44.589C45.783 45.2475 45.2475 45.783 44.589 46.1185L45.043 47.0095C45.8897 46.5781 46.5781 45.8897 47.0095 45.043L46.1185 44.589ZM40.6 11.5C41.7284 11.5 42.5446 11.5004 43.1865 11.5528C43.8226 11.6048 44.2434 11.7054 44.589 11.8815L45.043 10.9905C44.5329 10.7306 43.9658 10.6132 43.2679 10.5562C42.5758 10.4996 41.7119 10.5 40.6 10.5V11.5ZM47.5 17.4C47.5 16.2881 47.5004 15.4242 47.4438 14.7321C47.3868 14.0342 47.2694 13.4671 47.0095 12.957L46.1185 13.411C46.2946 13.7566 46.3952 14.1774 46.4472 14.8135C46.4996 15.4554 46.5 16.2716 46.5 17.4H47.5ZM44.589 11.8815C45.2475 12.217 45.783 12.7525 46.1185 13.411L47.0095 12.957C46.5781 12.1103 45.8897 11.4219 45.043 10.9905L44.589 11.8815ZM17.4 10.5C16.2881 10.5 15.4242 10.4996 14.7321 10.5562C14.0342 10.6132 13.4671 10.7306 12.957 10.9905L13.411 11.8815C13.7566 11.7054 14.1774 11.6048 14.8135 11.5528C15.4554 11.5004 16.2716 11.5 17.4 11.5V10.5ZM11.5 17.4C11.5 16.2716 11.5004 15.4554 11.5528 14.8135C11.6048 14.1774 11.7054 13.7566 11.8815 13.411L10.9905 12.957C10.7306 13.4671 10.6132 14.0342 10.5562 14.7321C10.4996 15.4242 10.5 16.2881 10.5 17.4H11.5ZM12.957 10.9905C12.1103 11.4219 11.4219 12.1103 10.9905 12.957L11.8815 13.411C12.217 12.7525 12.7525 12.217 13.411 11.8815L12.957 10.9905Z" fill="#23262F"/>
</g>
<defs>
<filter id="filter0_d_756_160459" x="0.5" y="0.5" width="57" height="57" filterUnits="userSpaceOnUse" color-interpolation-filters="sRGB">
<feFlood flood-opacity="0" result="BackgroundImageFix"/>
<feColorMatrix in="SourceAlpha" type="matrix" values="0 0 0 0 0 0 0 0 0 0 0 0 0 0 0 0 0 0 127 0" result="hardAlpha"/>
<feOffset/>
<feGaussianBlur stdDeviation="5"/>
<feColorMatrix type="matrix" values="0 0 0 0 0 0 0 0 0 0 0 0 0 0 0 0 0 0 0.9 0"/>
<feBlend mode="normal" in2="BackgroundImageFix" result="effect1_dropShadow_756_160459"/>
<feBlend mode="normal" in="SourceGraphic" in2="effect1_dropShadow_756_160459" result="shape"/>
</filter>
</defs>
</svg>
